#!OML:ASF X:\für Bonn\!DataBase\2005_08_12_Daniel\c3d\Daniel.ASF
:FULLY-SPECIFIED
:DEGREES
186
root 7.45269 16.6779 1.10432 -739.088 -62.6388 730.728
lowerback 13.5091 -8.45233 -9.68444
upperback 5.16282 -12.6902 -3.48097
thorax -0.690809 -6.51477 3.23347
lowerneck 14.6044 10.5913 2.68548
upperneck 7.61328 14.0153 -4.94761
head 0.603679 6.92756 -2.50471
rclavicle -2.12103e-013 2.3059e-014
rhumerus -35.837 -2.79138 -87.5709
rradius 51.1523
rwrist 9.86378
rhand -29.7296 17.5448
rfingers 7.12502
rthumb -3.05632 -12.4131
lclavicle -2.12103e-013 2.3059e-014
lhumerus -29.0697 9.04043 75.6815
lradius 122.272
lwrist 200.164
lhand -13.3907 15.641
lfingers 7.12502
lthumb 12.7166 45.2338
rfemur -26.0468 -5.98663 3.87452
rtibia 44.1914
rfoot -6.80923 -14.9314
rtoes -10.8927
lfemur 6.71789 -14.8153 -21.7452
ltibia 38.706
lfoot -35.4097 -8.68965
ltoes -19.4379
187
root 7.59174 16.6941 1.15852 -739.393 -63.0783 731.159
lowerback 13.5951 -8.21887 -9.65723
upperback 5.17522 -12.3925 -3.51106
thorax -0.771987 -6.36347 3.18142
lowerneck 14.5791 10.3816 2.84923
upperneck 7.01927 13.7746 -5.03241
head 0.417642 6.83004 -2.57421
rclavicle -9.22361e-014 3.18055e-015
rhumerus -35.6401 -2.11157 -87.8903
rradius 51.2658
rwrist 9.54481
rhand -29.5638 17.9171
rfingers 7.12502
rthumb -2.89622 -12.043
lclavicle -9.22361e-014 3.18055e-015
lhumerus -29.2422 8.86165 76.4616
lradius 121.964
lwrist 200.067
lhand -13.214 15.5745
lfingers 7.12502
lthumb 12.8869 45.1567
rfemur -26.242 -4.55588 3.44161
rtibia 43.3531
rfoot -6.18034 -16.1193
rtoes -10.2486
lfemur 6.49502 -14.7858 -22.3588
ltibia 38.5241
lfoot -35.4761 -8.06276
ltoes -19.0965
188
root 7.72944 16.7097 1.21062 -739.64 -63.4815 731.546
lowerback 13.6588 -7.99932 -9.63115
upperback 5.19612 -12.1101 -3.54563
thorax -0.83056 -6.22125 3.12031
lowerneck 14.5485 10.1671 3.05095
upperneck 6.44789 13.5325 -5.11603
head 0.241864 6.73092 -2.64873
rclavicle 9.93923e-015 -1.51076e-014
rhumerus -35.4236 -1.39266 -88.2267
rradius 51.3719
rwrist 9.21332
rhand -29.3215 18.3192
rfingers 7.12502
rthumb -2.66217 -11.6439
lclavicle 9.93923e-015 -1.51076e-014
lhumerus -29.4567 8.70379 77.1672
lradius 121.667
lwrist 200.01
lhand -13.0408 15.5371
lfingers 7.12502
lthumb 13.0538 45.1086
rfemur -26.442 -3.12016 2.99679
rtibia 42.5248
rfoot -5.66953 -17.3413
rtoes -9.60687
lfemur 6.18589 -14.7389 -22.8833
ltibia 38.4004
lfoot -35.4386 -7.62633
ltoes -18.5178
189
root 7.86854 16.7244 1.26011 -739.921 -63.8958 731.943
lowerback 13.7721 -7.77741 -9.62726
upperback 5.21659 -11.8338 -3.58073
thorax -0.910266 -6.08146 3.07739
lowerneck 14.5202 9.96048 3.27663
upperneck 5.89357 13.3034 -5.21538
head 0.0740742 6.6374 -2.73259
rclavicle -1.49089e-015 1.90833e-014
rhumerus -35.1698 -0.609416 -88.5618
rradius 51.4601
rwrist 8.81598
rhand -29.0064 18.7408
rfingers 7.12502
rthumb -2.35787 -11.2259
lclavicle -1.49089e-015 1.90833e-014
lhumerus -29.7549 8.55105 77.7969
lradius 121.404
lwrist 200.043
lhand -12.8063 15.5691
lfingers 7.12502
lthumb 13.2799 45.126
rfemur -26.6541 -1.66977 2.55176
rtibia 41.7619
rfoot -5.28775 -18.5365
rtoes -8.98193
lfemur 5.84788 -14.6386 -23.3607
ltibia 38.3194
lfoot -35.3296 -7.25584
ltoes -17.9383
190
root 8.00741 16.7409 1.30555 -740.154 -64.2991 732.294
lowerback 13.8892 -7.5588 -9.64606
upperback 5.23432 -11.5646 -3.59623
thorax -0.984851 -5.94568 3.06562
lowerneck 14.5072 9.75874 3.47018
upperneck 5.33922 13.0744 -5.29422
head -0.100585 6.54166 -2.8061
rclavicle 2.21645e-014 5.88403e-014
rhumerus -34.9441 0.169323 -88.9104
rradius 51.5836
rwrist 8.4597
rhand -28.6741 19.1224
rfingers 7.12502
rthumb -2.03695 -10.8476
lclavicle 2.21645e-014 5.88403e-014
lhumerus -30.1001 8.4325 78.3946
lradius 121.152
lwrist 200.06
lhand -12.6194 15.5921
lfingers 7.12502
lthumb 13.46 45.1372
rfemur -26.8713 -0.177111 2.13527
rtibia 41.0867
rfoot -5.18245 -19.7047
rtoes -8.36052
lfemur 5.43873 -14.4806 -23.7528
ltibia 38.2856
lfoot -35.1851 -6.95457
ltoes -17.4808
191
root 8.1438 16.7581 1.34637 -740.375 -64.6675 732.6
lowerback 14.0626 -7.34999 -9.68597
upperback 5.23199 -11.319 -3.60972
thorax -1.10355 -5.81882 3.07854
lowerneck 14.4944 9.56349 3.6819
upperneck 4.87109 12.8555 -5.37457
head -0.245867 6.44833 -2.88029
rclavicle 1.64991e-014 -2.22639e-014
rhumerus -34.7842 0.880974 -89.2916
rradius 51.6876
rwrist 8.29316
rhand -28.3902 19.429
rfingers 7.12502
rthumb -1.7628 -10.5435
lclavicle 1.64991e-014 -2.22639e-014
lhumerus -30.5307 8.3324 78.9263
lradius 120.918
lwrist 200.136
lhand -12.483 15.6223
lfingers 7.12502
lthumb 13.5915 45.1586
rfemur -27.0303 1.26029 1.77131
rtibia 40.5197
rfoot -5.24123 -20.7515
rtoes -7.83584
lfemur 5.01985 -14.2565 -24.0696
ltibia 38.2817
lfoot -35.0002 -6.74769
ltoes -17.1195
192
root 8.27998 16.7766 1.38319 -740.57 -65.0339 732.886
lowerback 14.2605 -7.14497 -9.72916
upperback 5.19824 -11.0833 -3.61428
thorax -1.26533 -5.69323 3.1087
lowerneck 14.5146 9.3777 3.84929
upperneck 4.41516 12.6411 -5.42384
head -0.39802 6.35472 -2.9391
rclavicle 4.77083e-015 4.77083e-015
rhumerus -34.7051 1.54618 -89.6986
rradius 51.8539
rwrist 8.18529
rhand -28.099 19.6609
rfingers 7.12502
rthumb -1.48153 -10.3137
lclavicle 4.77083e-015 4.77083e-015
lhumerus -31.0494 8.23432 79.4038
lradius 120.712
lwrist 200.21
lhand -12.3471 15.6723
lfingers 7.12502
lthumb 13.7225 45.1999
rfemur -27.1899 2.73366 1.453
rtibia 40.0479
rfoot -5.54015 -21.7575
rtoes -7.15184
lfemur 4.54669 -13.9655 -24.3249
ltibia 38.3129
lfoot -34.7944 -6.54658
ltoes -16.7958
